<svg width="1669" height="214" viewBox="0 0 1669 214" fill="none" xmlns="http://www.w3.org/2000/svg">
<path d="M1507.48 171C1515.23 166.75 1521.48 158.5 1521.48 145.5V30.5C1521.48 17.5 1515.23 9.25 1507.48 5H1544.98C1545.98 12.75 1551.98 20.75 1557.98 28.5L1643.73 138.25V30.5C1643.73 17.5 1637.48 9.25 1629.73 5H1668.73C1660.98 9.25 1654.73 17.5 1654.73 30.5V145.5C1654.73 155.5 1656.73 165 1661.73 171H1638.73C1638.48 164 1634.98 158 1629.73 151.5L1532.48 27V145.5C1532.48 158.5 1538.73 166.75 1546.48 171H1507.48Z" fill="#231f20"/>
<path d="M1419.77 173.5C1371.77 173.5 1340.02 138 1340.02 90.25C1340.02 37.75 1378.02 2.5 1426.77 2.5C1455.27 2.5 1466.02 14 1475.27 14C1481.52 14 1486.27 9.00001 1488.27 2.5V64.75C1476.02 23.75 1450.27 13.25 1426.77 13.25C1387.77 13.25 1360.02 39 1360.02 82.5C1360.02 128.5 1388.52 158 1429.77 158C1452.27 158 1467.27 150.75 1472.77 141.75C1474.27 139.25 1475.02 136.75 1475.02 134V111.75C1475.02 98.75 1470.52 90.5 1461.02 86.25H1503.27C1495.52 90.5 1494.27 101.25 1494.27 111.75V173.25C1490.52 160.75 1483.02 146.5 1478.27 142.5C1468.77 160.5 1448.77 173.5 1419.77 173.5Z" fill="#231f20"/>
<path d="M1289 171C1296.75 166.75 1300.5 158.5 1300.5 145.5V30.5C1300.5 17.5 1296.75 9.25 1289 5H1331.25C1323.5 9.25 1319.75 17.5 1319.75 30.5V145.5C1319.75 158.5 1323.5 166.75 1331.25 171H1289Z" fill="#231f20"/>
<path d="M1223 173.5C1196.5 173.5 1177.25 160.5 1166.25 160.5C1160.25 160.5 1156.25 165.75 1154.25 171.5V116.25C1166.25 152 1197.75 163.25 1222.25 163.25C1246.75 163.25 1264.5 153 1264.5 130.25C1264.5 116 1257.75 105.25 1233.25 98.75L1198.25 89.5C1171.25 82.25 1157 69 1157 46.75C1157 18 1181.75 2.5 1211 2.5C1232.5 2.5 1246.75 10.75 1256 10.75C1261.25 10.75 1266.25 6.49999 1268.75 0V53.5C1260 27.75 1239.75 12.75 1211.5 12.75C1185.75 12.75 1173 25 1173 41.5C1173 56.5 1183.5 65.25 1205.75 71.25L1238.75 80C1269 88 1281.25 101.5 1281.25 123.75C1281.25 157.75 1252.25 173.5 1223 173.5Z" fill="#231f20"/>
<path d="M1144.82 173.5C1137.82 171 1130.82 171 1123.82 171H1014.57C1022.32 166.75 1026.07 158.5 1026.07 145.5V30.5C1026.07 17.5 1022.32 9.25 1014.57 5H1116.82C1126.57 5 1131.82 4.75 1137.07 0V46.5C1128.32 21 1119.07 15.75 1097.32 15.75H1045.32V82.25H1091.32C1101.07 82.25 1108.82 81.5 1114.82 64V111C1108.82 93.75 1101.07 93 1091.32 93H1045.32V160.25H1105.07C1126.82 160.25 1136.07 155 1144.82 129.5V173.5Z" fill="#231f20"/>
<path d="M846.102 171C853.852 166.75 857.602 158.5 857.602 145.5V30.5C857.602 17.5 853.852 9.25 846.102 5H915.102C976.852 5 1005.6 39.75 1005.6 87.75C1005.6 135.5 976.852 171 915.102 171H846.102ZM915.102 160.25C966.102 160.5 982.852 134.75 982.852 87.75C982.852 43.75 963.852 15.5 915.102 15.75L876.852 16V160L915.102 160.25Z" fill="#231f20"/>
<path d="M821.754 171.25C814.004 171.25 807.504 165.25 807.504 157.5C807.504 150 814.004 144 821.754 144C829.504 144 836.004 150 836.004 157.5C836.004 165.25 829.504 171.25 821.754 171.25Z" fill="#231f20"/>
<path d="M638.766 171C646.516 166.75 652.766 158.5 652.766 145.5V30.5C652.766 17.5 646.516 9.25 638.766 5H676.266C677.266 12.75 683.266 20.75 689.266 28.5L775.016 138.25V30.5C775.016 17.5 768.766 9.25 761.016 5H800.016C792.266 9.25 786.016 17.5 786.016 30.5V145.5C786.016 155.5 788.016 165 793.016 171H770.016C769.766 164 766.266 158 761.016 151.5L663.766 27V145.5C663.766 158.5 670.016 166.75 677.766 171H638.766Z" fill="#231f20"/>
<path d="M632.082 173.5C625.082 171 618.082 171 611.082 171H501.832C509.582 166.75 513.332 158.5 513.332 145.5V30.5C513.332 17.5 509.582 9.25 501.832 5H604.082C613.832 5 619.082 4.75 624.332 0V46.5C615.582 21 606.332 15.75 584.582 15.75H532.582V82.25H578.582C588.332 82.25 596.082 81.5 602.082 64V111C596.082 93.75 588.332 93 578.582 93H532.582V160.25H592.332C614.082 160.25 623.332 155 632.082 129.5V173.5Z" fill="#231f20"/>
<path d="M493.402 173.5C486.402 171 479.402 171 472.402 171H363.152C370.902 166.75 374.652 158.5 374.652 145.5V30.5C374.652 17.5 370.902 9.25 363.152 5H465.402C475.152 5 480.402 4.75 485.652 0V46.5C476.902 21 467.652 15.75 445.902 15.75H393.902V82.25H439.902C449.652 82.25 457.402 81.5 463.402 64V111C457.402 93.75 449.652 93 439.902 93H393.902V160.25H453.652C475.402 160.25 484.652 155 493.402 129.5V173.5Z" fill="#231f20"/>
<path d="M358.867 173.5C351.117 171.25 345.117 171 335.367 171H239.117C246.867 166.75 250.617 158.5 250.617 145.5V30.5C250.617 17.5 246.867 9.25 239.117 5H281.367C273.617 9.25 269.867 17.5 269.867 30.5V160.25H321.867C342.617 160.25 349.117 153 358.867 125.25V173.5Z" fill="#231f20"/>
<path d="M146.102 173.5C98.6016 173.5 61.6016 135.75 61.6016 88.25C61.6016 40.25 98.1016 2.5 146.102 2.5C195.602 2.5 230.602 40.25 230.602 88.25C230.602 136.25 196.102 173.5 146.102 173.5ZM146.102 162.75C187.852 162.75 207.852 134.5 207.852 88.25C207.852 41.25 187.602 13.25 146.102 13.25C105.852 13.25 84.3516 41.75 84.3516 88.25C84.3516 135 106.102 162.75 146.102 162.75Z" fill="#231f20"/>
<path d="M0 214C19.5 204 23.25 189.5 23.25 155.5V30.5C23.25 17.5 19.5 9.25 11.75 5H54C46.25 9.25 42.5 17.5 42.5 30.5V155.25C42.5 196.25 19.5 211.75 0 214Z" fill="#231f20"/>
</svg>
